<svg id="visual" viewBox="0 0 900 600" width="900" height="600" xmlns="http://www.w3.org/2000/svg" xmlns:xlink="http://www.w3.org/1999/xlink" version="1.1"><rect x="0" y="0" width="900" height="600" fill="#ffffff"></rect><defs><linearGradient id="grad1_0" x1="33.3%" y1="100%" x2="100%" y2="0%"><stop offset="20%" stop-color="#ffffff" stop-opacity="1"></stop><stop offset="80%" stop-color="#ffffff" stop-opacity="1"></stop></linearGradient></defs><defs><linearGradient id="grad2_0" x1="0%" y1="100%" x2="66.7%" y2="0%"><stop offset="20%" stop-color="#ffffff" stop-opacity="1"></stop><stop offset="80%" stop-color="#ffffff" stop-opacity="1"></stop></linearGradient></defs><g transform="translate(900, 600)"><path d="M-297.5 0C-302.7 -30.2 -308 -60.5 -287.3 -77C-266.6 -93.5 -219.9 -96.2 -207 -119.5C-194 -142.8 -214.9 -186.5 -205.1 -205.1C-195.3 -223.6 -154.8 -217 -128 -221.7C-101.2 -226.4 -87.9 -242.4 -68.8 -256.9C-49.8 -271.4 -24.9 -284.5 0 -297.5L0 0Z" fill="#0d6efd"></path></g><g transform="translate(0, 0)"><path d="M297.5 0C267.1 19.2 236.7 38.4 228.9 61.3C221.2 84.2 236 110.8 234.7 135.5C233.4 160.2 215.9 183 194.5 194.5C173 205.9 147.4 206 128.5 222.6C109.6 239.1 97.3 272.1 77 287.3C56.7 302.5 28.3 300 0 297.5L0 0Z" fill="#0d6efd"></path></g></svg>