<svg id="visual" viewBox="0 0 900 600" width="900" height="600" xmlns="http://www.w3.org/2000/svg" xmlns:xlink="http://www.w3.org/1999/xlink" version="1.1"><rect x="0" y="0" width="900" height="600" fill="#ffffff"></rect><path d="M0 397L18.8 403.8C37.7 410.7 75.3 424.3 112.8 400.8C150.3 377.3 187.7 316.7 225.2 313.3C262.7 310 300.3 364 337.8 389.2C375.3 414.3 412.7 410.7 450.2 377C487.7 343.3 525.3 279.7 562.8 279.2C600.3 278.7 637.7 341.3 675.2 360C712.7 378.7 750.3 353.3 787.8 349.5C825.3 345.7 862.7 363.3 881.3 372.2L900 381L900 0L881.3 0C862.7 0 825.3 0 787.8 0C750.3 0 712.7 0 675.2 0C637.7 0 600.3 0 562.8 0C525.3 0 487.7 0 450.2 0C412.7 0 375.3 0 337.8 0C300.3 0 262.7 0 225.2 0C187.7 0 150.3 0 112.8 0C75.3 0 37.7 0 18.8 0L0 0Z" fill="#0d6efd" stroke-linecap="round" stroke-linejoin="miter"></path></svg>